<mxfile host="app.diagrams.net" modified="2024-01-21T07:26:28.272Z" agent="Mozilla/5.0 (Windows NT 10.0; Win64; x64) AppleWebKit/537.36 (KHTML, like Gecko) Chrome/120.0.0.0 Safari/537.36 Edg/120.0.0.0" etag="FGCekpusgXntMAKIDHYV" version="22.1.21" type="device">
  <diagram name="Page-1" id="UNGGTPoIL9BCaLn9AQ8j">
    <mxGraphModel dx="2063" dy="617" grid="1" gridSize="10" guides="1" tooltips="1" connect="1" arrows="1" fold="1" page="1" pageScale="1" pageWidth="827" pageHeight="1169" math="0" shadow="0">
      <root>
        <mxCell id="0" />
        <mxCell id="1" parent="0" />
        <mxCell id="D1Ew8BcR4I95bAV6FEGG-3" value="" style="edgeStyle=orthogonalEdgeStyle;rounded=0;orthogonalLoop=1;jettySize=auto;html=1;" parent="1" source="D1Ew8BcR4I95bAV6FEGG-1" target="D1Ew8BcR4I95bAV6FEGG-2" edge="1">
          <mxGeometry relative="1" as="geometry" />
        </mxCell>
        <mxCell id="D1Ew8BcR4I95bAV6FEGG-1" value="Begin" style="ellipse;whiteSpace=wrap;html=1;" parent="1" vertex="1">
          <mxGeometry x="210" y="120" width="120" height="80" as="geometry" />
        </mxCell>
        <mxCell id="D1Ew8BcR4I95bAV6FEGG-5" value="" style="edgeStyle=orthogonalEdgeStyle;rounded=0;orthogonalLoop=1;jettySize=auto;html=1;" parent="1" source="D1Ew8BcR4I95bAV6FEGG-2" target="D1Ew8BcR4I95bAV6FEGG-4" edge="1">
          <mxGeometry relative="1" as="geometry" />
        </mxCell>
        <mxCell id="D1Ew8BcR4I95bAV6FEGG-2" value="s" style="rhombus;whiteSpace=wrap;html=1;" parent="1" vertex="1">
          <mxGeometry x="230" y="240" width="80" height="80" as="geometry" />
        </mxCell>
        <mxCell id="D1Ew8BcR4I95bAV6FEGG-7" value="" style="edgeStyle=orthogonalEdgeStyle;rounded=0;orthogonalLoop=1;jettySize=auto;html=1;" parent="1" source="D1Ew8BcR4I95bAV6FEGG-4" target="D1Ew8BcR4I95bAV6FEGG-6" edge="1">
          <mxGeometry relative="1" as="geometry" />
        </mxCell>
        <mxCell id="D1Ew8BcR4I95bAV6FEGG-4" value="count = 0&lt;br&gt;a[26], b[26]" style="whiteSpace=wrap;html=1;" parent="1" vertex="1">
          <mxGeometry x="210" y="370" width="120" height="60" as="geometry" />
        </mxCell>
        <mxCell id="D1Ew8BcR4I95bAV6FEGG-9" value="" style="edgeStyle=orthogonalEdgeStyle;rounded=0;orthogonalLoop=1;jettySize=auto;html=1;" parent="1" source="D1Ew8BcR4I95bAV6FEGG-6" target="D1Ew8BcR4I95bAV6FEGG-8" edge="1">
          <mxGeometry relative="1" as="geometry" />
        </mxCell>
        <mxCell id="D1Ew8BcR4I95bAV6FEGG-6" value="i = 0" style="whiteSpace=wrap;html=1;" parent="1" vertex="1">
          <mxGeometry x="40" y="370" width="120" height="60" as="geometry" />
        </mxCell>
        <mxCell id="D1Ew8BcR4I95bAV6FEGG-11" value="" style="edgeStyle=orthogonalEdgeStyle;rounded=0;orthogonalLoop=1;jettySize=auto;html=1;" parent="1" source="D1Ew8BcR4I95bAV6FEGG-8" target="D1Ew8BcR4I95bAV6FEGG-10" edge="1">
          <mxGeometry relative="1" as="geometry" />
        </mxCell>
        <mxCell id="kn2Lbsxgs7fWnWtjN1V3-4" value="" style="edgeStyle=orthogonalEdgeStyle;rounded=0;orthogonalLoop=1;jettySize=auto;html=1;" edge="1" parent="1" source="D1Ew8BcR4I95bAV6FEGG-8" target="kn2Lbsxgs7fWnWtjN1V3-3">
          <mxGeometry relative="1" as="geometry" />
        </mxCell>
        <mxCell id="D1Ew8BcR4I95bAV6FEGG-8" value="i &amp;lt; 26" style="rhombus;whiteSpace=wrap;html=1;" parent="1" vertex="1">
          <mxGeometry x="60" y="500" width="80" height="80" as="geometry" />
        </mxCell>
        <mxCell id="D1Ew8BcR4I95bAV6FEGG-10" value="a[i] = -1&lt;br&gt;i = i + 1" style="whiteSpace=wrap;html=1;" parent="1" vertex="1">
          <mxGeometry x="40" y="630" width="120" height="60" as="geometry" />
        </mxCell>
        <mxCell id="kn2Lbsxgs7fWnWtjN1V3-1" value="true" style="text;html=1;align=center;verticalAlign=middle;resizable=0;points=[];autosize=1;strokeColor=none;fillColor=none;" vertex="1" parent="1">
          <mxGeometry x="100" y="590" width="40" height="30" as="geometry" />
        </mxCell>
        <mxCell id="kn2Lbsxgs7fWnWtjN1V3-2" value="" style="endArrow=classic;html=1;rounded=0;entryX=0;entryY=0.5;entryDx=0;entryDy=0;exitX=0;exitY=0.5;exitDx=0;exitDy=0;" edge="1" parent="1" source="D1Ew8BcR4I95bAV6FEGG-10" target="D1Ew8BcR4I95bAV6FEGG-8">
          <mxGeometry width="50" height="50" relative="1" as="geometry">
            <mxPoint x="70" y="470" as="sourcePoint" />
            <mxPoint x="120" y="420" as="targetPoint" />
            <Array as="points">
              <mxPoint x="10" y="660" />
              <mxPoint x="10" y="540" />
            </Array>
          </mxGeometry>
        </mxCell>
        <mxCell id="kn2Lbsxgs7fWnWtjN1V3-7" value="" style="edgeStyle=orthogonalEdgeStyle;rounded=0;orthogonalLoop=1;jettySize=auto;html=1;" edge="1" parent="1" source="kn2Lbsxgs7fWnWtjN1V3-3" target="kn2Lbsxgs7fWnWtjN1V3-6">
          <mxGeometry relative="1" as="geometry" />
        </mxCell>
        <mxCell id="kn2Lbsxgs7fWnWtjN1V3-3" value="i = 0" style="whiteSpace=wrap;html=1;" vertex="1" parent="1">
          <mxGeometry x="210" y="510" width="120" height="60" as="geometry" />
        </mxCell>
        <mxCell id="kn2Lbsxgs7fWnWtjN1V3-5" value="false" style="text;html=1;align=center;verticalAlign=middle;resizable=0;points=[];autosize=1;strokeColor=none;fillColor=none;" vertex="1" parent="1">
          <mxGeometry x="140" y="510" width="50" height="30" as="geometry" />
        </mxCell>
        <mxCell id="kn2Lbsxgs7fWnWtjN1V3-9" value="" style="edgeStyle=orthogonalEdgeStyle;rounded=0;orthogonalLoop=1;jettySize=auto;html=1;" edge="1" parent="1" source="kn2Lbsxgs7fWnWtjN1V3-6" target="kn2Lbsxgs7fWnWtjN1V3-8">
          <mxGeometry relative="1" as="geometry" />
        </mxCell>
        <mxCell id="kn2Lbsxgs7fWnWtjN1V3-6" value="i &amp;lt; 52" style="rhombus;whiteSpace=wrap;html=1;" vertex="1" parent="1">
          <mxGeometry x="414" y="500" width="80" height="80" as="geometry" />
        </mxCell>
        <mxCell id="kn2Lbsxgs7fWnWtjN1V3-11" value="" style="edgeStyle=orthogonalEdgeStyle;rounded=0;orthogonalLoop=1;jettySize=auto;html=1;" edge="1" parent="1" source="kn2Lbsxgs7fWnWtjN1V3-8" target="kn2Lbsxgs7fWnWtjN1V3-10">
          <mxGeometry relative="1" as="geometry" />
        </mxCell>
        <mxCell id="kn2Lbsxgs7fWnWtjN1V3-14" value="" style="edgeStyle=orthogonalEdgeStyle;rounded=0;orthogonalLoop=1;jettySize=auto;html=1;" edge="1" parent="1" source="kn2Lbsxgs7fWnWtjN1V3-8" target="kn2Lbsxgs7fWnWtjN1V3-13">
          <mxGeometry relative="1" as="geometry" />
        </mxCell>
        <mxCell id="kn2Lbsxgs7fWnWtjN1V3-8" value="a[s[i] - &#39;A&#39;] = -1" style="rhombus;whiteSpace=wrap;html=1;" vertex="1" parent="1">
          <mxGeometry x="401" y="640" width="106" height="100" as="geometry" />
        </mxCell>
        <mxCell id="kn2Lbsxgs7fWnWtjN1V3-17" value="" style="edgeStyle=orthogonalEdgeStyle;rounded=0;orthogonalLoop=1;jettySize=auto;html=1;" edge="1" parent="1" source="kn2Lbsxgs7fWnWtjN1V3-10" target="kn2Lbsxgs7fWnWtjN1V3-16">
          <mxGeometry relative="1" as="geometry" />
        </mxCell>
        <mxCell id="kn2Lbsxgs7fWnWtjN1V3-10" value="a[s[i] - &#39;A&#39;] = i" style="whiteSpace=wrap;html=1;" vertex="1" parent="1">
          <mxGeometry x="394" y="790" width="120" height="60" as="geometry" />
        </mxCell>
        <mxCell id="kn2Lbsxgs7fWnWtjN1V3-12" value="true" style="text;html=1;align=center;verticalAlign=middle;resizable=0;points=[];autosize=1;strokeColor=none;fillColor=none;" vertex="1" parent="1">
          <mxGeometry x="450" y="738" width="40" height="30" as="geometry" />
        </mxCell>
        <mxCell id="kn2Lbsxgs7fWnWtjN1V3-13" value="b[s[i] - &#39;A&#39;] = i" style="whiteSpace=wrap;html=1;" vertex="1" parent="1">
          <mxGeometry x="560" y="660" width="120" height="60" as="geometry" />
        </mxCell>
        <mxCell id="kn2Lbsxgs7fWnWtjN1V3-15" value="false" style="text;html=1;align=center;verticalAlign=middle;resizable=0;points=[];autosize=1;strokeColor=none;fillColor=none;" vertex="1" parent="1">
          <mxGeometry x="505" y="658" width="50" height="30" as="geometry" />
        </mxCell>
        <mxCell id="kn2Lbsxgs7fWnWtjN1V3-16" value="i = i + 1" style="whiteSpace=wrap;html=1;" vertex="1" parent="1">
          <mxGeometry x="560" y="790" width="120" height="60" as="geometry" />
        </mxCell>
        <mxCell id="kn2Lbsxgs7fWnWtjN1V3-18" value="" style="endArrow=classic;html=1;rounded=0;entryX=0.5;entryY=0;entryDx=0;entryDy=0;exitX=0.5;exitY=1;exitDx=0;exitDy=0;" edge="1" parent="1" source="kn2Lbsxgs7fWnWtjN1V3-13" target="kn2Lbsxgs7fWnWtjN1V3-16">
          <mxGeometry width="50" height="50" relative="1" as="geometry">
            <mxPoint x="480" y="680" as="sourcePoint" />
            <mxPoint x="530" y="630" as="targetPoint" />
          </mxGeometry>
        </mxCell>
        <mxCell id="kn2Lbsxgs7fWnWtjN1V3-19" value="" style="endArrow=classic;html=1;rounded=0;entryX=1;entryY=0.5;entryDx=0;entryDy=0;exitX=1;exitY=0.5;exitDx=0;exitDy=0;" edge="1" parent="1" source="kn2Lbsxgs7fWnWtjN1V3-16" target="kn2Lbsxgs7fWnWtjN1V3-6">
          <mxGeometry width="50" height="50" relative="1" as="geometry">
            <mxPoint x="480" y="680" as="sourcePoint" />
            <mxPoint x="530" y="630" as="targetPoint" />
            <Array as="points">
              <mxPoint x="720" y="820" />
              <mxPoint x="720" y="540" />
            </Array>
          </mxGeometry>
        </mxCell>
        <mxCell id="kn2Lbsxgs7fWnWtjN1V3-21" value="true" style="text;html=1;align=center;verticalAlign=middle;resizable=0;points=[];autosize=1;strokeColor=none;fillColor=none;" vertex="1" parent="1">
          <mxGeometry x="450" y="588" width="40" height="30" as="geometry" />
        </mxCell>
        <mxCell id="kn2Lbsxgs7fWnWtjN1V3-29" value="" style="edgeStyle=orthogonalEdgeStyle;rounded=0;orthogonalLoop=1;jettySize=auto;html=1;" edge="1" parent="1" source="kn2Lbsxgs7fWnWtjN1V3-25" target="kn2Lbsxgs7fWnWtjN1V3-28">
          <mxGeometry relative="1" as="geometry" />
        </mxCell>
        <mxCell id="kn2Lbsxgs7fWnWtjN1V3-25" value="i = 0&lt;br&gt;j = 0" style="rounded=0;whiteSpace=wrap;html=1;" vertex="1" parent="1">
          <mxGeometry x="210" y="630" width="120" height="60" as="geometry" />
        </mxCell>
        <mxCell id="kn2Lbsxgs7fWnWtjN1V3-26" value="" style="endArrow=classic;html=1;rounded=0;entryX=1;entryY=0.5;entryDx=0;entryDy=0;" edge="1" parent="1" source="kn2Lbsxgs7fWnWtjN1V3-6" target="kn2Lbsxgs7fWnWtjN1V3-25">
          <mxGeometry width="50" height="50" relative="1" as="geometry">
            <mxPoint x="340" y="530" as="sourcePoint" />
            <mxPoint x="390" y="480" as="targetPoint" />
          </mxGeometry>
        </mxCell>
        <mxCell id="kn2Lbsxgs7fWnWtjN1V3-27" value="false" style="text;html=1;align=center;verticalAlign=middle;resizable=0;points=[];autosize=1;strokeColor=none;fillColor=none;" vertex="1" parent="1">
          <mxGeometry x="364" y="610" width="50" height="30" as="geometry" />
        </mxCell>
        <mxCell id="kn2Lbsxgs7fWnWtjN1V3-31" value="" style="edgeStyle=orthogonalEdgeStyle;rounded=0;orthogonalLoop=1;jettySize=auto;html=1;" edge="1" parent="1" source="kn2Lbsxgs7fWnWtjN1V3-28" target="kn2Lbsxgs7fWnWtjN1V3-30">
          <mxGeometry relative="1" as="geometry" />
        </mxCell>
        <mxCell id="kn2Lbsxgs7fWnWtjN1V3-50" value="" style="edgeStyle=orthogonalEdgeStyle;rounded=0;orthogonalLoop=1;jettySize=auto;html=1;" edge="1" parent="1" source="kn2Lbsxgs7fWnWtjN1V3-28" target="kn2Lbsxgs7fWnWtjN1V3-49">
          <mxGeometry relative="1" as="geometry" />
        </mxCell>
        <mxCell id="kn2Lbsxgs7fWnWtjN1V3-28" value="i &amp;lt; 26" style="rhombus;whiteSpace=wrap;html=1;rounded=0;" vertex="1" parent="1">
          <mxGeometry x="230" y="738" width="80" height="80" as="geometry" />
        </mxCell>
        <mxCell id="kn2Lbsxgs7fWnWtjN1V3-34" value="" style="edgeStyle=orthogonalEdgeStyle;rounded=0;orthogonalLoop=1;jettySize=auto;html=1;" edge="1" parent="1" source="kn2Lbsxgs7fWnWtjN1V3-30">
          <mxGeometry relative="1" as="geometry">
            <mxPoint x="170" y="910" as="targetPoint" />
          </mxGeometry>
        </mxCell>
        <mxCell id="kn2Lbsxgs7fWnWtjN1V3-30" value="j &amp;lt; 26" style="rhombus;whiteSpace=wrap;html=1;rounded=0;" vertex="1" parent="1">
          <mxGeometry x="230" y="870" width="80" height="80" as="geometry" />
        </mxCell>
        <mxCell id="kn2Lbsxgs7fWnWtjN1V3-32" value="true" style="text;html=1;align=center;verticalAlign=middle;resizable=0;points=[];autosize=1;strokeColor=none;fillColor=none;" vertex="1" parent="1">
          <mxGeometry x="270" y="818" width="40" height="30" as="geometry" />
        </mxCell>
        <mxCell id="kn2Lbsxgs7fWnWtjN1V3-35" value="true" style="text;html=1;align=center;verticalAlign=middle;resizable=0;points=[];autosize=1;strokeColor=none;fillColor=none;" vertex="1" parent="1">
          <mxGeometry x="180" y="878" width="40" height="30" as="geometry" />
        </mxCell>
        <mxCell id="kn2Lbsxgs7fWnWtjN1V3-38" value="" style="edgeStyle=orthogonalEdgeStyle;rounded=0;orthogonalLoop=1;jettySize=auto;html=1;" edge="1" parent="1" source="kn2Lbsxgs7fWnWtjN1V3-36" target="kn2Lbsxgs7fWnWtjN1V3-37">
          <mxGeometry relative="1" as="geometry" />
        </mxCell>
        <mxCell id="kn2Lbsxgs7fWnWtjN1V3-41" value="" style="edgeStyle=orthogonalEdgeStyle;rounded=0;orthogonalLoop=1;jettySize=auto;html=1;" edge="1" parent="1" source="kn2Lbsxgs7fWnWtjN1V3-36" target="kn2Lbsxgs7fWnWtjN1V3-40">
          <mxGeometry relative="1" as="geometry" />
        </mxCell>
        <mxCell id="kn2Lbsxgs7fWnWtjN1V3-36" value="a[i] &amp;lt; a[j] &amp;amp;&amp;amp; a[j] &amp;lt; b[i] &amp;amp;&amp;amp; b[i] &amp;lt; b[j]" style="rhombus;whiteSpace=wrap;html=1;" vertex="1" parent="1">
          <mxGeometry x="20" y="840" width="150" height="140" as="geometry" />
        </mxCell>
        <mxCell id="kn2Lbsxgs7fWnWtjN1V3-37" value="count = count + 1" style="whiteSpace=wrap;html=1;" vertex="1" parent="1">
          <mxGeometry x="-60" y="1030" width="120" height="60" as="geometry" />
        </mxCell>
        <mxCell id="kn2Lbsxgs7fWnWtjN1V3-39" value="true" style="text;html=1;align=center;verticalAlign=middle;resizable=0;points=[];autosize=1;strokeColor=none;fillColor=none;" vertex="1" parent="1">
          <mxGeometry x="30" y="980" width="40" height="30" as="geometry" />
        </mxCell>
        <mxCell id="kn2Lbsxgs7fWnWtjN1V3-40" value="j = j + 1" style="whiteSpace=wrap;html=1;" vertex="1" parent="1">
          <mxGeometry x="130" y="1030" width="120" height="60" as="geometry" />
        </mxCell>
        <mxCell id="kn2Lbsxgs7fWnWtjN1V3-42" value="false" style="text;html=1;align=center;verticalAlign=middle;resizable=0;points=[];autosize=1;strokeColor=none;fillColor=none;" vertex="1" parent="1">
          <mxGeometry x="125" y="978" width="50" height="30" as="geometry" />
        </mxCell>
        <mxCell id="kn2Lbsxgs7fWnWtjN1V3-43" value="" style="endArrow=classic;html=1;rounded=0;exitX=1;exitY=0.5;exitDx=0;exitDy=0;" edge="1" parent="1" source="kn2Lbsxgs7fWnWtjN1V3-40">
          <mxGeometry width="50" height="50" relative="1" as="geometry">
            <mxPoint x="260" y="930" as="sourcePoint" />
            <mxPoint x="310" y="910" as="targetPoint" />
            <Array as="points">
              <mxPoint x="360" y="1060" />
              <mxPoint x="360" y="910" />
            </Array>
          </mxGeometry>
        </mxCell>
        <mxCell id="kn2Lbsxgs7fWnWtjN1V3-45" value="i = i + 1" style="rounded=1;whiteSpace=wrap;html=1;" vertex="1" parent="1">
          <mxGeometry x="290" y="1109" width="120" height="60" as="geometry" />
        </mxCell>
        <mxCell id="kn2Lbsxgs7fWnWtjN1V3-46" value="" style="endArrow=classic;html=1;rounded=0;entryX=0.432;entryY=-0.027;entryDx=0;entryDy=0;entryPerimeter=0;exitX=0.5;exitY=1;exitDx=0;exitDy=0;" edge="1" parent="1" source="kn2Lbsxgs7fWnWtjN1V3-30" target="kn2Lbsxgs7fWnWtjN1V3-45">
          <mxGeometry width="50" height="50" relative="1" as="geometry">
            <mxPoint x="310" y="930" as="sourcePoint" />
            <mxPoint x="360" y="880" as="targetPoint" />
            <Array as="points">
              <mxPoint x="270" y="1020" />
              <mxPoint x="342" y="1020" />
            </Array>
          </mxGeometry>
        </mxCell>
        <mxCell id="kn2Lbsxgs7fWnWtjN1V3-47" value="false" style="text;html=1;align=center;verticalAlign=middle;resizable=0;points=[];autosize=1;strokeColor=none;fillColor=none;" vertex="1" parent="1">
          <mxGeometry x="260" y="960" width="50" height="30" as="geometry" />
        </mxCell>
        <mxCell id="kn2Lbsxgs7fWnWtjN1V3-48" value="" style="endArrow=classic;html=1;rounded=0;entryX=1;entryY=0.5;entryDx=0;entryDy=0;exitX=1;exitY=0.5;exitDx=0;exitDy=0;" edge="1" parent="1" source="kn2Lbsxgs7fWnWtjN1V3-45" target="kn2Lbsxgs7fWnWtjN1V3-28">
          <mxGeometry width="50" height="50" relative="1" as="geometry">
            <mxPoint x="310" y="930" as="sourcePoint" />
            <mxPoint x="360" y="880" as="targetPoint" />
            <Array as="points">
              <mxPoint x="440" y="1140" />
              <mxPoint x="440" y="1060" />
              <mxPoint x="380" y="1060" />
              <mxPoint x="380" y="778" />
            </Array>
          </mxGeometry>
        </mxCell>
        <mxCell id="kn2Lbsxgs7fWnWtjN1V3-52" value="" style="edgeStyle=orthogonalEdgeStyle;rounded=0;orthogonalLoop=1;jettySize=auto;html=1;" edge="1" parent="1" source="kn2Lbsxgs7fWnWtjN1V3-49" target="kn2Lbsxgs7fWnWtjN1V3-51">
          <mxGeometry relative="1" as="geometry" />
        </mxCell>
        <mxCell id="kn2Lbsxgs7fWnWtjN1V3-49" value="print count" style="whiteSpace=wrap;html=1;rounded=0;" vertex="1" parent="1">
          <mxGeometry x="50" y="748" width="120" height="60" as="geometry" />
        </mxCell>
        <mxCell id="kn2Lbsxgs7fWnWtjN1V3-51" value="End" style="ellipse;whiteSpace=wrap;html=1;rounded=0;" vertex="1" parent="1">
          <mxGeometry x="-130" y="738" width="80" height="80" as="geometry" />
        </mxCell>
        <mxCell id="kn2Lbsxgs7fWnWtjN1V3-53" value="false" style="text;html=1;align=center;verticalAlign=middle;resizable=0;points=[];autosize=1;strokeColor=none;fillColor=none;" vertex="1" parent="1">
          <mxGeometry x="185" y="748" width="50" height="30" as="geometry" />
        </mxCell>
      </root>
    </mxGraphModel>
  </diagram>
</mxfile>
